<?xml version="1.0" encoding="UTF-8" standalone="no"?>
<svg
   xmlns:dc="http://purl.org/dc/elements/1.1/"
   xmlns:cc="http://creativecommons.org/ns#"
   xmlns:rdf="http://www.w3.org/1999/02/22-rdf-syntax-ns#"
   xmlns:svg="http://www.w3.org/2000/svg"
   xmlns="http://www.w3.org/2000/svg"
   xmlns:sodipodi="http://sodipodi.sourceforge.net/DTD/sodipodi-0.dtd"
   xmlns:inkscape="http://www.inkscape.org/namespaces/inkscape"
   version="1.1"
   x="0px"
   y="0px"
   viewBox="-14.824 -4.83 100 100"
   overflow="visible"
   enable-background="new -14.824 -4.83 100 100"
   xml:space="preserve"
   id="svg831"
   sodipodi:docname="anchor.svg"
   inkscape:version="0.92.2 (5c3e80d, 2017-08-06)"><metadata
     id="metadata837"><rdf:RDF><cc:Work
         rdf:about=""><dc:format>image/svg+xml</dc:format><dc:type
           rdf:resource="http://purl.org/dc/dcmitype/StillImage" /></cc:Work></rdf:RDF></metadata><defs
     id="defs835" /><sodipodi:namedview
     pagecolor="#ffffff"
     bordercolor="#666666"
     borderopacity="1"
     objecttolerance="10"
     gridtolerance="10"
     guidetolerance="10"
     inkscape:pageopacity="0"
     inkscape:pageshadow="2"
     inkscape:window-width="1920"
     inkscape:window-height="1017"
     id="namedview833"
     showgrid="false"
     inkscape:zoom="8.48"
     inkscape:cx="50"
     inkscape:cy="50"
     inkscape:window-x="-8"
     inkscape:window-y="-4"
     inkscape:window-maximized="1"
     inkscape:current-layer="svg831" /><path
     d="M35.226,90.341c-0.017-0.024-0.033-0.05-0.05-0.074c-0.017,0.024-0.034,0.05-0.051,0.074H35.226z"
     id="path827" /><path
     d="M58.608,60.388l5.032,1.197c-2.235,2.557-3.993,4.394-3.993,4.394c-2.236,1.997-3.994,3.274-3.994,3.274  c-2.715,1.678-4.553,2.077-4.553,2.077c-1.677,0.24-3.151,0.242-3.151,0.242c-0.182-0.035-0.363-0.068-0.543-0.103  c-0.962-0.181-1.853-0.484-2.396-0.658c-0.438-0.142-0.679-0.269-0.679-0.269c-1.285-0.689-2.018-1.609-2.018-1.609  c-0.718-1.038-1.038-2.076-1.038-2.076c-0.318-1.119-0.479-2.716-0.479-2.716c-0.239-2.316-0.479-4.713-0.479-4.713  c-0.559-12.062-0.798-25.881-0.798-25.881c-0.08-9.105-0.16-12.221-0.16-12.221c0.479-0.878,1.119-1.677,1.119-1.677  c0.798-0.32,2.235-0.719,2.235-0.719c3.675-0.479,6.471-0.719,6.471-0.719c1.175,0,2.67-0.373,3.555,0.639  c0.399,0.219,0.719,0.303,1.098,0.05c0.84-0.56,0.843-1.325,0.967-2.261c0.067-0.514,0.172-1.103,0.133-1.623  c-0.16-2.157-0.241-3.435-0.241-3.435c-0.26-0.297-0.604-0.736-0.997-0.862c-0.917-0.293-1.415,0.423-2.038,0.942  c-0.479,0.399-1.038,0.399-1.038,0.399c-3.674-0.16-6.23-0.639-6.23-0.639c-2.875-0.559-4.233-0.719-4.233-0.719  c-0.799-0.399-1.118-1.358-1.118-1.358C38.64,8.387,38.64,7.029,38.64,7.029c0-0.958,0.159-1.837,0.159-1.837  c0.479-0.479,0.56-1.039,0.56-1.039c-0.16-1.118-0.56-1.996-0.56-1.996C38,1.278,37.281,0.639,37.281,0.639  C36.403,0.16,35.524,0,35.524,0h-0.698c0,0-0.878,0.16-1.757,0.639c0,0-0.719,0.639-1.517,1.518c0,0-0.4,0.878-0.56,1.996  c0,0,0.08,0.56,0.56,1.039c0,0,0.16,0.879,0.16,1.837c0,0,0,1.358-0.4,2.317c0,0-0.319,0.958-1.118,1.358  c0,0-1.358,0.16-4.234,0.719c0,0-2.556,0.479-6.23,0.639c0,0-0.56,0-1.039-0.399c-0.423-0.352-0.89-0.937-1.462-1.022  c-0.678-0.101-1.174,0.486-1.573,0.942c0,0-0.08,1.278-0.239,3.435c0.026,0.626,0.074,1.259,0.166,1.88  c0.062,0.422,0.059,0.964,0.263,1.347c0.273,0.515,1.22,1.233,1.768,0.607c0.832-0.95,2.429-0.639,3.555-0.639  c0,0,2.796,0.239,6.47,0.719c0,0,1.438,0.399,2.237,0.719c0,0,0.639,0.798,1.118,1.677c0,0-0.08,3.116-0.16,12.221  c0,0-0.24,13.82-0.799,25.881c0,0-0.24,2.396-0.479,4.713c0,0-0.161,1.597-0.48,2.716c0,0-0.319,1.038-1.038,2.076  c0,0-0.731,0.92-2.017,1.609c0,0-0.241,0.127-0.679,0.269c-0.544,0.174-1.434,0.478-2.396,0.658  c-0.18,0.034-0.361,0.067-0.542,0.103c0,0-1.475-0.002-3.152-0.242c0,0-1.837-0.399-4.553-2.077c0,0-1.757-1.277-3.994-3.274  c0,0-1.757-1.837-3.994-4.394l5.033-1.197L0,54.996l1.079,17.134l2.156-6.23c0,0,0.959,2.548,2.875,5.632  c1.056,1.697,2.636,3.485,3.954,5.271c0,0,2.006,2.545,5.392,4.194c2.254,1.097,5.203,1.294,8.268,1.917  c0,0,4.361-0.189,7.788,2.037c1.659,1.078,2.506,3.655,3.664,5.317c1.158-1.662,2.004-4.239,3.664-5.317  c3.427-2.227,7.787-2.037,7.787-2.037c3.064-0.623,6.015-0.82,8.268-1.917c3.385-1.649,5.392-4.194,5.392-4.194  c1.319-1.785,2.899-3.573,3.954-5.271c1.916-3.084,2.876-5.632,2.876-5.632l2.156,6.23l1.079-17.134L58.608,60.388z M35.176,5.174  c-0.727,0-1.315-0.589-1.315-1.315c0-0.727,0.588-1.315,1.315-1.315c0.726,0,1.315,0.589,1.315,1.315  C36.491,4.585,35.902,5.174,35.176,5.174z"
     id="path829" /><path
     style="opacity:0.88500001;fill:#f5a623;fill-opacity:1;stroke-width:0.11792453"
     d="m 49.460373,94.086085 c -0.25063,-0.437795 -0.717299,-1.269238 -1.037042,-1.847651 -1.115738,-2.018367 -2.625901,-3.157597 -5.158649,-3.891558 -1.14409,-0.331545 -3.170951,-0.658197 -4.084077,-0.658197 -0.801085,0 -5.663086,-0.861096 -7.022586,-1.243752 -2.011107,-0.566063 -4.104532,-1.812682 -5.933827,-3.533551 -1.031475,-0.970338 -4.033886,-4.747118 -5.20182,-6.543451 -0.72686,-1.117943 -2.83841,-5.21416 -2.83841,-5.50626 0,-0.503505 -0.286,0.160914 -1.174943,2.729552 -0.548882,1.586019 -1.017333,2.864305 -1.041002,2.840637 -0.0612,-0.0612 -1.088644,-16.374121 -1.034693,-16.428071 0.04586,-0.04586 11.142626,5.013249 11.296015,5.149948 0.04701,0.0419 -0.90818,0.307852 -2.122642,0.591015 -1.214462,0.283164 -2.309647,0.551558 -2.433746,0.59643 -0.192865,0.06974 0.01184,0.345622 1.409566,1.899686 2.078305,2.310768 2.775711,2.989593 4.561582,4.440047 1.720229,1.397141 2.489026,1.902657 3.918045,2.57628 1.633801,0.770154 2.328913,0.959554 4.074648,1.110232 l 1.591982,0.137407 1.415094,-0.36136 c 2.680574,-0.684514 3.992891,-1.61004 4.871377,-3.435589 0.586226,-1.218216 0.746847,-2.051552 1.135617,-5.891841 0.344117,-3.399192 0.561706,-8.699366 0.953713,-23.231132 0.03937,-1.459316 0.115641,-5.996463 0.169498,-10.082548 l 0.09792,-7.429245 -0.559055,-0.823212 -0.559057,-0.823212 -1.168215,-0.373932 c -1.979991,-0.633771 -8.963496,-1.32263 -10.144086,-1.000621 -0.266919,0.0728 -0.689227,0.294424 -0.938465,0.492494 -0.485622,0.385923 -0.753283,0.391909 -1.306806,0.02923 -0.463981,-0.304013 -0.620713,-0.761116 -0.768222,-2.240499 -0.10173,-1.020251 -0.106114,-1.862768 -0.0164,-3.15278 l 0.122427,-1.76046 0.483094,-0.450625 c 0.70032,-0.653252 1.136008,-0.606856 2.059918,0.219362 0.87123,0.779108 1.024011,0.80973 3.214659,0.644314 2.005228,-0.151415 3.495344,-0.355809 6.93326,-0.95101 2.232014,-0.386425 2.347872,-0.446528 2.847275,-1.477055 0.634005,-1.308285 0.68924,-3.896647 0.10152,-4.7573294 -0.330045,-0.4833297 -0.328025,-0.8501556 0.0109,-1.9786016 0.253,-0.842382 1.594624,-2.1429293 2.600647,-2.5210231 1.399297,-0.5258975 2.784573,-0.1537872 4.037517,1.0845499 0.594017,0.5870925 0.779297,0.8641829 0.962468,1.4393941 0.403242,1.2662978 0.404844,1.3332718 0.04622,1.9317695 -0.319259,0.5328046 -0.329091,0.5994206 -0.324788,2.2003816 0.0051,1.900067 0.215644,2.659785 0.928584,3.350794 0.382185,0.370428 0.505169,0.40815 2.388258,0.732535 4.429281,0.762997 8.026152,1.167184 8.910467,1.001286 0.23345,-0.0438 0.729107,-0.331741 1.143446,-0.66427 0.402254,-0.32283 0.861785,-0.619696 1.02118,-0.659702 0.369772,-0.09281 0.882565,0.119455 1.262741,0.52269 0.278048,0.294913 0.30688,0.441611 0.437432,2.225564 0.257787,3.522656 -0.244344,5.460443 -1.414948,5.460443 -0.177082,0 -0.458687,-0.107544 -0.625789,-0.238987 -0.981271,-0.771867 -1.933455,-0.777532 -8.277513,-0.04924 -1.037265,0.119077 -2.082901,0.323547 -2.813013,0.550074 -1.152859,0.35769 -1.166189,0.366144 -1.681956,1.066763 -0.285937,0.388419 -0.549836,0.825547 -0.586442,0.971398 -0.07978,0.317863 0.140815,16.150543 0.303951,21.815561 0.337331,11.71398 0.534555,15.981814 0.896304,19.395579 0.359958,3.396868 0.538318,4.298014 1.071495,5.413617 0.930819,1.947618 2.506227,2.959889 5.63985,3.623859 1.125643,0.238507 3.501487,0.04091 4.712289,-0.391922 3.387075,-1.210792 6.334271,-3.479868 10.365114,-7.980207 0.690329,-0.770736 1.255144,-1.443752 1.255144,-1.495591 0,-0.116628 0.04766,-0.103327 -2.564243,-0.715557 -1.183329,-0.277371 -2.111984,-0.542928 -2.063679,-0.590125 0.09407,-0.09192 10.815787,-5.041783 11.115946,-5.131871 0.155929,-0.0468 0.114894,0.963921 -0.317674,7.824331 -0.273204,4.332942 -0.512979,8.085411 -0.532834,8.338821 -0.03085,0.393692 -0.171658,0.06762 -0.967565,-2.240566 -0.512305,-1.485722 -0.978729,-2.829677 -1.036497,-2.986567 -0.0925,-0.251226 -0.243997,-0.005 -1.269849,2.063679 -1.300061,2.621667 -2.175798,3.997985 -4.195832,6.594218 -1.920428,2.468216 -2.267056,2.857936 -3.379447,3.799587 -1.786533,1.512321 -3.729325,2.594182 -5.537422,3.083563 -1.415188,0.383035 -6.045552,1.160826 -7.393279,1.241895 -3.01976,0.181645 -5.984654,1.236289 -7.37877,2.624705 -0.418686,0.416974 -0.95967,1.223514 -1.720368,2.564859 -0.610297,1.076139 -1.149273,1.956617 -1.197725,1.956617 -0.04845,0 -0.293156,-0.358195 -0.543785,-0.79599 z M 50.542621,9.9299096 c 0.512903,-0.2143042 0.778134,-0.6074579 0.778134,-1.15343 0,-0.8804564 -0.476218,-1.404367 -1.286691,-1.4155524 -0.245657,-0.00339 -0.563614,0.056434 -0.706572,0.1329427 -0.336893,0.1802996 -0.718119,0.8095777 -0.718119,1.1853754 0,0.4383376 0.423898,1.0522434 0.856392,1.240261 0.483752,0.2102997 0.595845,0.2113827 1.076856,0.010403 z"
     id="path839"
     inkscape:connector-curvature="0"
     transform="translate(-14.824,-4.83)" /></svg>